<mxfile host="Electron" modified="2023-05-31T17:52:20.612Z" agent="Mozilla/5.0 (Windows NT 10.0; Win64; x64) AppleWebKit/537.36 (KHTML, like Gecko) draw.io/21.2.8 Chrome/112.0.5615.165 Electron/24.2.0 Safari/537.36" etag="HbXbKtcHmxHgj3r445kT" version="21.2.8" type="device">
  <diagram name="Página-1" id="8A34iGCpDNREY9lOanAp">
    <mxGraphModel dx="880" dy="532" grid="1" gridSize="10" guides="1" tooltips="1" connect="1" arrows="1" fold="1" page="1" pageScale="1" pageWidth="827" pageHeight="1169" math="0" shadow="0">
      <root>
        <mxCell id="0" />
        <mxCell id="1" parent="0" />
        <mxCell id="dH_4KRTwfCwti32s8tUT-31" style="edgeStyle=orthogonalEdgeStyle;rounded=0;orthogonalLoop=1;jettySize=auto;html=1;endArrow=open;endFill=0;" edge="1" parent="1" source="-hqrLETgz1vvv5t_kjo1-20">
          <mxGeometry relative="1" as="geometry">
            <mxPoint x="656" y="510" as="targetPoint" />
          </mxGeometry>
        </mxCell>
        <mxCell id="-hqrLETgz1vvv5t_kjo1-20" value="Cliente" style="swimlane;fontStyle=1;align=center;verticalAlign=top;childLayout=stackLayout;horizontal=1;startSize=26;horizontalStack=0;resizeParent=1;resizeParentMax=0;resizeLast=0;collapsible=1;marginBottom=0;whiteSpace=wrap;html=1;fillColor=#f8cecc;strokeColor=#b85450;" parent="1" vertex="1">
          <mxGeometry x="531" y="610" width="250" height="52" as="geometry" />
        </mxCell>
        <mxCell id="-hqrLETgz1vvv5t_kjo1-26" value="&lt;div&gt;1 - Crie a interface observadora.&lt;/div&gt;&lt;div&gt;2 - Implemente a interface observadora nos interessados para aplicarmos o polimorfismo.&lt;/div&gt;&lt;div&gt;3 - Implemente o sujeito/observável de forma que quando alguma ação for executada, notifique os interessados.&lt;/div&gt;" style="text;html=1;align=left;verticalAlign=middle;resizable=0;points=[];autosize=1;strokeColor=#666666;fillColor=#f5f5f5;fontColor=#333333;" parent="1" vertex="1">
          <mxGeometry x="80" y="960" width="620" height="60" as="geometry" />
        </mxCell>
        <mxCell id="dH_4KRTwfCwti32s8tUT-23" style="edgeStyle=orthogonalEdgeStyle;rounded=0;orthogonalLoop=1;jettySize=auto;html=1;endArrow=diamond;endFill=0;" edge="1" parent="1" source="dH_4KRTwfCwti32s8tUT-1">
          <mxGeometry relative="1" as="geometry">
            <mxPoint x="520" y="296" as="targetPoint" />
          </mxGeometry>
        </mxCell>
        <mxCell id="dH_4KRTwfCwti32s8tUT-1" value="&amp;lt;&amp;lt;EstoqueObserver&amp;gt;&amp;gt;" style="swimlane;fontStyle=1;align=center;verticalAlign=top;childLayout=stackLayout;horizontal=1;startSize=26;horizontalStack=0;resizeParent=1;resizeParentMax=0;resizeLast=0;collapsible=1;marginBottom=0;whiteSpace=wrap;html=1;fillColor=#e1d5e7;strokeColor=#9673a6;" vertex="1" parent="1">
          <mxGeometry x="119" y="270" width="280" height="52" as="geometry" />
        </mxCell>
        <mxCell id="dH_4KRTwfCwti32s8tUT-4" value="+&amp;nbsp;receberNotificacao(produto: Produto): void" style="text;strokeColor=none;fillColor=none;align=left;verticalAlign=top;spacingLeft=4;spacingRight=4;overflow=hidden;rotatable=0;points=[[0,0.5],[1,0.5]];portConstraint=eastwest;whiteSpace=wrap;html=1;" vertex="1" parent="dH_4KRTwfCwti32s8tUT-1">
          <mxGeometry y="26" width="280" height="26" as="geometry" />
        </mxCell>
        <mxCell id="dH_4KRTwfCwti32s8tUT-20" style="edgeStyle=orthogonalEdgeStyle;rounded=0;orthogonalLoop=1;jettySize=auto;html=1;endArrow=block;endFill=0;" edge="1" parent="1" source="dH_4KRTwfCwti32s8tUT-5">
          <mxGeometry relative="1" as="geometry">
            <mxPoint x="240" y="330" as="targetPoint" />
          </mxGeometry>
        </mxCell>
        <mxCell id="dH_4KRTwfCwti32s8tUT-5" value="EmailNotificacao" style="swimlane;fontStyle=1;align=center;verticalAlign=top;childLayout=stackLayout;horizontal=1;startSize=26;horizontalStack=0;resizeParent=1;resizeParentMax=0;resizeLast=0;collapsible=1;marginBottom=0;whiteSpace=wrap;html=1;fillColor=#d5e8d4;strokeColor=#82b366;" vertex="1" parent="1">
          <mxGeometry x="41" y="420" width="200" height="52" as="geometry" />
        </mxCell>
        <mxCell id="dH_4KRTwfCwti32s8tUT-6" value="+&amp;nbsp;receberNotificacao(): void" style="text;strokeColor=none;fillColor=none;align=left;verticalAlign=top;spacingLeft=4;spacingRight=4;overflow=hidden;rotatable=0;points=[[0,0.5],[1,0.5]];portConstraint=eastwest;whiteSpace=wrap;html=1;" vertex="1" parent="dH_4KRTwfCwti32s8tUT-5">
          <mxGeometry y="26" width="200" height="26" as="geometry" />
        </mxCell>
        <mxCell id="dH_4KRTwfCwti32s8tUT-21" style="edgeStyle=orthogonalEdgeStyle;rounded=0;orthogonalLoop=1;jettySize=auto;html=1;endArrow=block;endFill=0;" edge="1" parent="1" source="dH_4KRTwfCwti32s8tUT-7">
          <mxGeometry relative="1" as="geometry">
            <mxPoint x="280" y="330" as="targetPoint" />
          </mxGeometry>
        </mxCell>
        <mxCell id="dH_4KRTwfCwti32s8tUT-7" value="WhatsappNotificacao" style="swimlane;fontStyle=1;align=center;verticalAlign=top;childLayout=stackLayout;horizontal=1;startSize=26;horizontalStack=0;resizeParent=1;resizeParentMax=0;resizeLast=0;collapsible=1;marginBottom=0;whiteSpace=wrap;html=1;fillColor=#d5e8d4;strokeColor=#82b366;" vertex="1" parent="1">
          <mxGeometry x="271" y="420" width="200" height="52" as="geometry" />
        </mxCell>
        <mxCell id="dH_4KRTwfCwti32s8tUT-8" value="+&amp;nbsp;receberNotificacao(): void" style="text;strokeColor=none;fillColor=none;align=left;verticalAlign=top;spacingLeft=4;spacingRight=4;overflow=hidden;rotatable=0;points=[[0,0.5],[1,0.5]];portConstraint=eastwest;whiteSpace=wrap;html=1;" vertex="1" parent="dH_4KRTwfCwti32s8tUT-7">
          <mxGeometry y="26" width="200" height="26" as="geometry" />
        </mxCell>
        <mxCell id="dH_4KRTwfCwti32s8tUT-16" value="EstoqueSubject" style="swimlane;fontStyle=1;align=center;verticalAlign=top;childLayout=stackLayout;horizontal=1;startSize=26;horizontalStack=0;resizeParent=1;resizeParentMax=0;resizeLast=0;collapsible=1;marginBottom=0;whiteSpace=wrap;html=1;fillColor=#d5e8d4;strokeColor=#82b366;" vertex="1" parent="1">
          <mxGeometry x="521" y="260" width="270" height="240" as="geometry" />
        </mxCell>
        <mxCell id="dH_4KRTwfCwti32s8tUT-17" value="+ estoqueObserver: List&amp;lt;EstoqueObserver)&lt;br&gt;&lt;br&gt;+ produtos: List&amp;lt;Produto)" style="text;strokeColor=none;fillColor=none;align=left;verticalAlign=top;spacingLeft=4;spacingRight=4;overflow=hidden;rotatable=0;points=[[0,0.5],[1,0.5]];portConstraint=eastwest;whiteSpace=wrap;html=1;" vertex="1" parent="dH_4KRTwfCwti32s8tUT-16">
          <mxGeometry y="26" width="270" height="54" as="geometry" />
        </mxCell>
        <mxCell id="dH_4KRTwfCwti32s8tUT-18" value="" style="line;strokeWidth=1;fillColor=none;align=left;verticalAlign=middle;spacingTop=-1;spacingLeft=3;spacingRight=3;rotatable=0;labelPosition=right;points=[];portConstraint=eastwest;strokeColor=inherit;" vertex="1" parent="dH_4KRTwfCwti32s8tUT-16">
          <mxGeometry y="80" width="270" height="8" as="geometry" />
        </mxCell>
        <mxCell id="dH_4KRTwfCwti32s8tUT-19" value="+ addObserver (observador: EstoqueObserver)&lt;br&gt;&lt;br&gt;+ remObserver (observador: EstoqueObserver)&lt;br&gt;&lt;br&gt;+ addProduto(produto: Produto)&lt;br&gt;&lt;br&gt;+ remProduto (produto: Produto)&lt;br&gt;&lt;br&gt;- notificar(): void" style="text;strokeColor=none;fillColor=none;align=left;verticalAlign=top;spacingLeft=4;spacingRight=4;overflow=hidden;rotatable=0;points=[[0,0.5],[1,0.5]];portConstraint=eastwest;whiteSpace=wrap;html=1;" vertex="1" parent="dH_4KRTwfCwti32s8tUT-16">
          <mxGeometry y="88" width="270" height="152" as="geometry" />
        </mxCell>
        <mxCell id="dH_4KRTwfCwti32s8tUT-30" style="edgeStyle=orthogonalEdgeStyle;rounded=0;orthogonalLoop=1;jettySize=auto;html=1;entryX=0.5;entryY=0;entryDx=0;entryDy=0;endArrow=diamond;endFill=0;" edge="1" parent="1" source="dH_4KRTwfCwti32s8tUT-25" target="dH_4KRTwfCwti32s8tUT-16">
          <mxGeometry relative="1" as="geometry" />
        </mxCell>
        <mxCell id="dH_4KRTwfCwti32s8tUT-25" value="Produto" style="swimlane;fontStyle=1;align=center;verticalAlign=top;childLayout=stackLayout;horizontal=1;startSize=26;horizontalStack=0;resizeParent=1;resizeParentMax=0;resizeLast=0;collapsible=1;marginBottom=0;whiteSpace=wrap;html=1;fillColor=#d5e8d4;strokeColor=#82b366;" vertex="1" parent="1">
          <mxGeometry x="521" y="80" width="270" height="120" as="geometry" />
        </mxCell>
        <mxCell id="dH_4KRTwfCwti32s8tUT-26" value="+ nome: String" style="text;strokeColor=none;fillColor=none;align=left;verticalAlign=top;spacingLeft=4;spacingRight=4;overflow=hidden;rotatable=0;points=[[0,0.5],[1,0.5]];portConstraint=eastwest;whiteSpace=wrap;html=1;" vertex="1" parent="dH_4KRTwfCwti32s8tUT-25">
          <mxGeometry y="26" width="270" height="26" as="geometry" />
        </mxCell>
        <mxCell id="dH_4KRTwfCwti32s8tUT-27" value="" style="line;strokeWidth=1;fillColor=none;align=left;verticalAlign=middle;spacingTop=-1;spacingLeft=3;spacingRight=3;rotatable=0;labelPosition=right;points=[];portConstraint=eastwest;strokeColor=inherit;" vertex="1" parent="dH_4KRTwfCwti32s8tUT-25">
          <mxGeometry y="52" width="270" height="8" as="geometry" />
        </mxCell>
        <mxCell id="dH_4KRTwfCwti32s8tUT-28" value="+ setNome(nome: String): void&lt;br&gt;&lt;br&gt;+ getNome(): string" style="text;strokeColor=none;fillColor=none;align=left;verticalAlign=top;spacingLeft=4;spacingRight=4;overflow=hidden;rotatable=0;points=[[0,0.5],[1,0.5]];portConstraint=eastwest;whiteSpace=wrap;html=1;" vertex="1" parent="dH_4KRTwfCwti32s8tUT-25">
          <mxGeometry y="60" width="270" height="60" as="geometry" />
        </mxCell>
        <mxCell id="dH_4KRTwfCwti32s8tUT-32" value="&lt;font style=&quot;font-size: 36px;&quot;&gt;Observer&lt;/font&gt;" style="text;html=1;align=left;verticalAlign=middle;resizable=0;points=[];autosize=1;fillColor=#d5e8d4;strokeColor=#82b366;gradientColor=#97d077;" vertex="1" parent="1">
          <mxGeometry x="40" y="40" width="170" height="60" as="geometry" />
        </mxCell>
        <mxCell id="dH_4KRTwfCwti32s8tUT-33" value="usa" style="text;html=1;align=center;verticalAlign=middle;resizable=0;points=[];autosize=1;strokeColor=none;fillColor=none;" vertex="1" parent="1">
          <mxGeometry x="660" y="570" width="40" height="30" as="geometry" />
        </mxCell>
        <mxCell id="dH_4KRTwfCwti32s8tUT-34" value="compõe" style="text;html=1;align=left;verticalAlign=middle;resizable=0;points=[];autosize=1;strokeColor=none;fillColor=none;" vertex="1" parent="1">
          <mxGeometry x="660" y="203" width="70" height="30" as="geometry" />
        </mxCell>
        <mxCell id="dH_4KRTwfCwti32s8tUT-36" value="compõe" style="text;html=1;align=left;verticalAlign=middle;resizable=0;points=[];autosize=1;strokeColor=none;fillColor=none;" vertex="1" parent="1">
          <mxGeometry x="403" y="263" width="70" height="30" as="geometry" />
        </mxCell>
        <mxCell id="dH_4KRTwfCwti32s8tUT-37" value="implementa" style="text;html=1;align=center;verticalAlign=middle;resizable=0;points=[];autosize=1;strokeColor=none;fillColor=none;" vertex="1" parent="1">
          <mxGeometry x="370" y="390" width="90" height="30" as="geometry" />
        </mxCell>
        <mxCell id="dH_4KRTwfCwti32s8tUT-38" value="implementa" style="text;html=1;align=center;verticalAlign=middle;resizable=0;points=[];autosize=1;strokeColor=none;fillColor=none;" vertex="1" parent="1">
          <mxGeometry x="140" y="390" width="90" height="30" as="geometry" />
        </mxCell>
      </root>
    </mxGraphModel>
  </diagram>
</mxfile>
